<svg width="161" height="56" viewBox="0 0 161 56" fill="none" xmlns="http://www.w3.org/2000/svg">
<path fill-rule="evenodd" clip-rule="evenodd" d="M151 5C151 2.23858 148.761 0 146 0H15C12.2386 0 10 2.23858 10 5V11C10 13.7614 7.76142 16 5 16V16C2.23858 16 0 18.2386 0 21V51C0 53.7614 2.23858 56 5 56H156C158.761 56 161 53.7614 161 51V21C161 18.2386 158.761 16 156 16V16C153.239 16 151 13.7614 151 11V5Z" fill="#EDEDED" fill-opacity="0.5"/>
<rect x="5.10406" y="46.9005" width="150.792" height="4.9095" fill="#EE4D49"/>
<path d="M26.3999 12.7827C25.6233 13.8604 24.292 14.3042 22.6279 14.3042C19.902 14.3042 18.0477 12.7827 18.0477 10.3262C18.0477 7.96476 19.7276 6.36405 22.7072 6.36405C24.4981 6.36405 25.7184 6.88706 26.4633 7.85382L27.7629 6.26896C27.1289 5.34974 25.3222 4.44638 22.9291 4.44638C18.3013 4.44638 15.924 6.90291 15.924 10.3262C15.924 14.114 18.8877 16.2536 22.6279 16.2536C24.9894 16.2536 26.8595 15.3502 27.6995 14.2567L26.3999 12.7827ZM43.0289 16L37.0381 4.63656H35.0571L29.1614 16H31.4911L32.9809 13.0205H39.0985L40.5882 16H43.0289ZM38.3219 11.3881H33.7575L36.0555 6.88706L38.3219 11.3881ZM47.3006 16V12.228H50.7873C53.5766 12.228 55.0189 11.0394 55.0189 8.36098C55.0189 5.71426 53.5291 4.63656 50.7873 4.63656H45.1135V16H47.3006ZM47.3006 10.4054V6.52254H50.613C52.1344 6.52254 53.0536 6.9663 53.0536 8.42437C53.0536 9.88244 52.1503 10.4054 50.613 10.4054H47.3006ZM59.7318 16V12.228H63.2185C66.0079 12.228 67.4501 11.0394 67.4501 8.36098C67.4501 5.71426 65.9603 4.63656 63.2185 4.63656H57.5447V16H59.7318ZM59.7318 10.4054V6.52254H63.0442C64.5657 6.52254 65.4849 6.9663 65.4849 8.42437C65.4849 9.88244 64.5815 10.4054 63.0442 10.4054H59.7318ZM78.9146 11.5465C78.9146 13.4642 77.5833 14.3676 75.412 14.3676C73.2408 14.3676 71.8937 13.4642 71.8937 11.5465V4.63656H69.8492V11.6258C69.8492 15.1283 72.591 16.2694 75.412 16.2694C78.2331 16.2694 80.9749 15.1283 80.9749 11.6258V4.63656H78.9146V11.5465ZM94.035 12.7827C93.2584 13.8604 91.9271 14.3042 90.263 14.3042C87.5371 14.3042 85.6828 12.7827 85.6828 10.3262C85.6828 7.96476 87.3628 6.36405 90.3423 6.36405C92.1332 6.36405 93.3535 6.88706 94.0984 7.85382L95.398 6.26896C94.764 5.34974 92.9573 4.44638 90.5642 4.44638C85.9364 4.44638 83.5591 6.90291 83.5591 10.3262C83.5591 14.114 86.5228 16.2536 90.263 16.2536C92.6245 16.2536 94.4946 15.3502 95.3346 14.2567L94.035 12.7827ZM107.875 12.7827C107.098 13.8604 105.767 14.3042 104.103 14.3042C101.377 14.3042 99.5225 12.7827 99.5225 10.3262C99.5225 7.96476 101.202 6.36405 104.182 6.36405C105.973 6.36405 107.193 6.88706 107.938 7.85382L109.238 6.26896C108.604 5.34974 106.797 4.44638 104.404 4.44638C99.776 4.44638 97.3987 6.90291 97.3987 10.3262C97.3987 14.114 100.362 16.2536 104.103 16.2536C106.464 16.2536 108.334 15.3502 109.174 14.2567L107.875 12.7827ZM113.975 16V4.63656H111.914V16H113.975ZM128.226 16V4.63656H126.213V12.9254L119.224 4.63656H117.132V16H119.16V8.01231L126.229 16H128.226ZM144.277 10.4688C144.277 6.9346 141.472 4.44638 137.542 4.44638C133.548 4.44638 130.885 6.9346 130.885 10.4688C130.885 14.0031 133.801 16.2694 137.542 16.2694C141.472 16.2694 144.277 14.0031 144.277 10.4688ZM142.122 10.4688C142.122 12.9412 140.204 14.3676 137.542 14.3676C135.006 14.3676 132.977 12.9412 132.977 10.4688C132.977 7.98061 134.911 6.39575 137.542 6.39575C140.204 6.39575 142.122 7.98061 142.122 10.4688ZM13.2543 39C19.1741 39 23.0551 35.2909 23.0551 30.2063C23.0551 25.1216 20.0338 21.388 13.2543 21.388H4.80446V39H13.2543ZM7.99771 36.0278V24.3111H13.0578C17.4546 24.3111 19.8127 26.3498 19.8127 30.28C19.8127 34.1364 16.9634 36.0278 13.0578 36.0278H7.99771ZM30.2597 39V21.388H27.0664V39H30.2597ZM51.9928 39V24.3111H58.6249V21.388H42.1674V24.3111H48.7995V39H51.9928ZM81.2665 30.4274C81.2665 24.9497 76.9187 21.0932 70.827 21.0932C64.637 21.0932 60.5103 24.9497 60.5103 30.4274C60.5103 35.905 65.03 39.4176 70.827 39.4176C76.9187 39.4176 81.2665 35.905 81.2665 30.4274ZM77.9258 30.4274C77.9258 34.2593 74.9536 36.47 70.827 36.47C66.8968 36.47 63.7527 34.2593 63.7527 30.4274C63.7527 26.5709 66.7495 24.1145 70.827 24.1145C74.9536 24.1145 77.9258 26.5709 77.9258 30.4274ZM103.04 39L97.2918 32.0977C99.7482 31.5327 101.124 29.5676 101.124 27.1113C101.124 23.8935 99.6253 21.388 94.7618 21.388H85.2066V39H88.3998V32.8591H94.3196L99.1586 39H103.04ZM94.5161 24.3111C96.5058 24.3111 97.9796 25.1216 97.9796 27.2095C97.9796 29.3466 96.3584 30.2063 94.5407 30.2063H88.3998V24.3111H94.5161ZM109.318 39V21.388H106.125V39H109.318ZM131.16 39V21.388H128.041V34.2347L117.208 21.388H113.966V39H117.11V26.62L128.065 39H131.16ZM155.793 30.4274C155.793 24.9497 151.445 21.0932 145.353 21.0932C139.163 21.0932 135.036 24.9497 135.036 30.4274C135.036 35.905 139.556 39.4176 145.353 39.4176C151.445 39.4176 155.793 35.905 155.793 30.4274ZM152.452 30.4274C152.452 34.2593 149.48 36.47 145.353 36.47C141.423 36.47 138.279 34.2593 138.279 30.4274C138.279 26.5709 141.276 24.1145 145.353 24.1145C149.48 24.1145 152.452 26.5709 152.452 30.4274Z" fill="#2C2628"/>
</svg>
