<svg width="23" height="21" viewBox="0 0 23 21" fill="none" xmlns="http://www.w3.org/2000/svg">
<path d="M10.75 3.23438C10.75 2.98828 10.627 2.74219 10.4629 2.53711C10.2578 2.37305 10.0117 2.25 9.76562 2.25C9.47852 2.25 9.23242 2.37305 9.06836 2.53711L5.41797 6.1875H1.23438C0.947266 6.1875 0.701172 6.31055 0.537109 6.47461C0.332031 6.67969 0.25 6.92578 0.25 7.17188V13.0781C0.25 13.3652 0.332031 13.6113 0.537109 13.7754C0.701172 13.9805 0.947266 14.0625 1.23438 14.0625H5.41797L9.06836 17.7129C9.23242 17.918 9.47852 18 9.76562 18C10.0117 18 10.2578 17.918 10.4629 17.7129C10.627 17.5488 10.75 17.3027 10.75 17.0156V3.23438Z" fill="#F0F0F0"/>
<rect x="13" y="8" width="2" height="4" fill="#F0F0F0"/>
<rect x="17" y="6" width="2" height="8" fill="#F0F0F0"/>
<rect x="21" y="4" width="2" height="12" fill="#F0F0F0"/>
</svg>
