<svg width="13" height="16" viewBox="0 0 13 16" fill="none" xmlns="http://www.w3.org/2000/svg">
<rect x="12" y="3" width="1" height="14" transform="rotate(45 12 3)" fill="#F0F0F0"/>
<rect x="2" y="3.70709" width="1" height="14" transform="rotate(-45 2 3.70709)" fill="#F0F0F0"/>
<path fill-rule="evenodd" clip-rule="evenodd" d="M10.4621 0.537109C10.6262 0.742188 10.7492 0.988281 10.7492 1.23438V2.46954L7.45312 5.76562L5.64609 3.95859L9.06757 0.537109C9.23163 0.373047 9.47772 0.25 9.76483 0.25C10.0109 0.25 10.257 0.373047 10.4621 0.537109ZM0.409627 4.62838C0.296664 4.79751 0.249207 4.98469 0.249207 5.17188V11.0781C0.249207 11.3652 0.331238 11.6113 0.536316 11.7754C0.685833 11.9623 0.903479 12.047 1.15821 12.0605L4.5 8.71875L0.409627 4.62838ZM5.77109 12.4164L9.06757 15.7129C9.23163 15.918 9.47772 16 9.76483 16C10.0109 16 10.257 15.918 10.4621 15.7129C10.6262 15.5488 10.7492 15.3027 10.7492 15.0156V14.968L6.98437 11.2031L5.77109 12.4164ZM10.7492 9.06171V7.43829L9.9375 8.25L10.7492 9.06171Z" fill="#F0F0F0"/>
</svg>
