<svg width="14" height="22" viewBox="0 0 14 22" fill="none" xmlns="http://www.w3.org/2000/svg">
<path d="M11.7168 14.3242C12.4551 13.832 12.9062 13.4629 13.1113 13.1758C13.3574 12.8477 13.3574 12.3965 13.1523 11.9043C12.9473 11.5762 12.6602 11.3301 12.332 11.248C11.8398 11.166 11.3887 11.2891 10.8965 11.6582L10.4043 11.9863C9.99414 12.2324 9.54297 12.3965 9.0918 12.5605C8.39453 12.7656 7.69727 12.8477 7 12.8477C6.26172 12.8477 5.56445 12.7656 4.9082 12.5605C4.41602 12.3965 4.00586 12.2324 3.5957 11.9863L3.10352 11.6582C2.61133 11.2891 2.11914 11.166 1.70898 11.248C1.29883 11.3301 1.05273 11.5762 0.888672 11.9043C0.642578 12.3965 0.642578 12.8477 0.888672 13.1758C1.05273 13.4629 1.54492 13.832 2.2832 14.3242C3.14453 14.8984 4.375 15.2676 6.01562 15.4316L2.03711 19.4102C1.62695 19.7793 1.54492 20.1895 1.70898 20.6406C1.87305 21.0918 2.16016 21.3789 2.65234 21.543C3.10352 21.707 3.51367 21.625 3.88281 21.2559L7 18.1387L10.1582 21.2969C10.4863 21.666 10.8965 21.748 11.3477 21.584C11.7988 21.4199 12.127 21.0918 12.291 20.6406C12.4551 20.1895 12.332 19.7793 12.0039 19.4102L8.02539 15.4316C9.58398 15.2676 10.8145 14.8984 11.7168 14.3242ZM1.66797 5.95703C1.66797 6.94141 1.87305 7.80273 2.36523 8.62305C2.85742 9.44336 3.51367 10.0586 4.33398 10.5508C5.1543 11.043 6.01562 11.248 7 11.248C7.94336 11.248 8.8457 11.043 9.66602 10.5508C10.4863 10.0586 11.1016 9.44336 11.5938 8.62305C12.0859 7.80273 12.332 6.94141 12.332 5.95703C12.332 4.97266 12.0859 4.11133 11.5938 3.29102C11.1016 2.4707 10.4863 1.85547 9.66602 1.36328C8.8457 0.871094 7.94336 0.625 7 0.625C6.01562 0.625 5.1543 0.871094 4.33398 1.36328C3.51367 1.85547 2.85742 2.4707 2.36523 3.29102C1.87305 4.11133 1.66797 4.97266 1.66797 5.95703ZM4.375 5.95703C4.375 5.21875 4.62109 4.60352 5.1543 4.11133C5.64648 3.61914 6.26172 3.33203 7 3.33203C7.69727 3.33203 8.3125 3.61914 8.8457 4.11133C9.33789 4.60352 9.625 5.21875 9.625 5.95703C9.625 6.69531 9.33789 7.31055 8.8457 7.80273C8.3125 8.29492 7.69727 8.54102 7 8.54102C6.26172 8.54102 5.64648 8.29492 5.1543 7.80273C4.62109 7.31055 4.375 6.69531 4.375 5.95703Z" fill="#422A23"/>
</svg>
