<svg width="24" height="14" viewBox="0 0 24 14" fill="none" xmlns="http://www.w3.org/2000/svg">
<path d="M22.541 1.46484C22.459 1.875 22.1309 2.57227 21.5566 3.51562C21.1465 4.21289 20.6543 4.99219 20.0801 5.89453C19.5879 6.63281 19.3008 7.00195 19.3008 7.00195C19.1367 7.24805 19.0547 7.45312 19.0547 7.57617C19.0547 7.74023 19.1367 7.9043 19.3008 8.06836L19.6699 8.47852C21.6387 10.5293 22.7461 11.9238 22.9922 12.6621C23.0742 12.9902 23.0332 13.2773 22.8691 13.4414C22.7051 13.6055 22.5 13.6875 22.1719 13.6875H19.752C19.4238 13.6875 19.1777 13.6055 18.9316 13.4004C18.7676 13.3184 18.4395 13.0312 18.0293 12.5391C17.6191 12.0469 17.25 11.6367 16.9219 11.3086C15.8145 10.2832 14.9941 9.75 14.502 9.75C14.2559 9.75 14.0918 9.79102 14.0098 9.87305C13.9277 9.95508 13.8867 10.1602 13.8867 10.4062C13.8457 10.6113 13.8457 11.0215 13.8457 11.6777V12.7441C13.8457 13.0723 13.7637 13.3184 13.5996 13.4414C13.3535 13.6055 12.8613 13.6875 12.123 13.6875C10.8105 13.6875 9.53906 13.3184 8.22656 12.5391C6.91406 11.8008 5.76562 10.6934 4.78125 9.25781C3.83789 8.02734 3.05859 6.75586 2.44336 5.44336C1.95117 4.45898 1.54102 3.55664 1.25391 2.69531C1.04883 2.03906 0.966797 1.54688 0.966797 1.25977C0.966797 0.808594 1.21289 0.5625 1.78711 0.5625H4.20703C4.49414 0.5625 4.69922 0.644531 4.86328 0.767578C5.02734 0.931641 5.15039 1.17773 5.27344 1.50586C5.64258 2.61328 6.09375 3.67969 6.66797 4.70508C7.16016 5.68945 7.65234 6.46875 8.14453 7.04297C8.63672 7.6582 9.00586 7.94531 9.29297 7.94531C9.45703 7.94531 9.53906 7.9043 9.62109 7.78125C9.70312 7.6582 9.74414 7.41211 9.74414 7.04297V3.47461C9.70312 3.06445 9.62109 2.6543 9.45703 2.32617C9.375 2.16211 9.21094 1.95703 9.04688 1.71094C8.8418 1.46484 8.75977 1.30078 8.75977 1.13672C8.75977 0.972656 8.80078 0.849609 8.92383 0.726562C9.04688 0.644531 9.21094 0.5625 9.375 0.5625H13.1895C13.4355 0.5625 13.5996 0.644531 13.6816 0.767578C13.7637 0.931641 13.8457 1.13672 13.8457 1.46484V6.22266C13.8457 6.46875 13.8867 6.67383 13.9688 6.75586C14.0508 6.87891 14.1328 6.91992 14.2559 6.91992C14.3789 6.91992 14.543 6.87891 14.707 6.79688C14.8711 6.71484 15.0762 6.50977 15.3633 6.18164C15.8555 5.60742 16.3887 4.91016 16.9219 4.04883C17.25 3.47461 17.6191 2.81836 17.9473 2.08008L18.3574 1.25977C18.5215 0.808594 18.8906 0.5625 19.3828 0.5625H21.8027C22.459 0.5625 22.7051 0.890625 22.541 1.46484Z" fill="#422A23"/>
</svg>
